<?xml version="1.0" encoding="utf-8"?>
<!-- Generator: Adobe Illustrator 22.0.1, SVG Export Plug-In . SVG Version: 6.00 Build 0)  -->
<svg version="1.1" id="Layer_1" xmlns="http://www.w3.org/2000/svg" xmlns:xlink="http://www.w3.org/1999/xlink" x="0px" y="0px"
	 viewBox="0 0 49.6 53.1" style="enable-background:new 0 0 49.6 53.1;" xml:space="preserve">
<style type="text/css">
	.st0{fill:#D19B5F;}
	.st1{fill:#BA803B;}
</style>
<g>
	<path class="st0" d="M9.6,3.4c9-4.8,22.2-1.2,31.4,9.1C51.5,24.1,52.8,40.1,44,48.1c0,0,0,0,0,0c-4.6-1.7-14.1-7-18.2-22.6
		C22,11.2,14.6,5.6,9.6,3.4z"/>
	<path class="st1" d="M40.8,50.3c-2.8-1.3-6.3-3.5-9.7-7.2c-3.4-3.8-6.5-9.1-8.5-16.6C18.7,11.2,10.4,6.9,6.3,5.6
		C6.3,5.7,6.2,5.7,6.2,5.8c-8.8,8-7.5,24,2.9,35.6C18.4,51.8,31.8,55.3,40.8,50.3z"/>
</g>
</svg>
