<?xml version="1.0" encoding="utf-8"?>
<!-- Generator: Adobe Illustrator 22.0.1, SVG Export Plug-In . SVG Version: 6.00 Build 0)  -->
<svg version="1.1" id="Layer_1" xmlns="http://www.w3.org/2000/svg" xmlns:xlink="http://www.w3.org/1999/xlink" x="0px" y="0px"
	 viewBox="0 0 490.3 372.2" style="enable-background:new 0 0 490.3 372.2;" xml:space="preserve">
<style type="text/css">
	.st0{fill:#AC7C35;}
	.st1{fill:#8E6314;}
	.st2{fill:#BD8E3B;}
	.st3{fill:#B78138;}
	.st4{fill:#B1C3D5;}
	.st5{fill:#BCCCDC;}
	.st6{fill:#A8BACD;}
	.st7{fill:#798B98;}
	.st8{fill:#5E6A73;}
	.st9{fill:#DAE3EE;}
	.st10{fill:#C3D2E3;}
	.st11{fill:#C9D9E8;}
	.st12{fill:#DDEAF3;}
	.st13{fill:#C9D9EB;}
	.st14{fill:#DCEBF4;}
	.st15{fill:#CDDDED;}
	.st16{fill:#E8F0F7;}
	.st17{fill:#798B93;}
	.st18{fill:#BDD1E2;}
	.st19{fill:#D4E6F5;}
	.st20{fill:#869AAF;}
	.st21{fill:#878C9C;}
	.st22{fill:#C0D4E7;}
	.st23{fill:#8A9AA8;}
	.st24{fill:#4C5255;}
	.st25{fill:#A8B9CB;}
	.st26{fill:none;stroke:#716A66;stroke-width:2;stroke-miterlimit:10;}
	.st27{fill:#434B4A;}
	.st28{fill:none;stroke:#D4E6F5;stroke-width:5;stroke-miterlimit:10;}
	.st29{fill:#D4DFE9;}
	.st30{fill:#585B5D;}
	.st31{fill:#A4ACB2;}
	.st32{fill:#C5D3DD;}
	.st33{fill:#D9EFFB;}
	.st34{fill:#CDB794;}
	.st35{fill:#C8D1C9;}
	.st36{fill:#DEE7F3;}
	.st37{fill:#E0EAF5;}
	.st38{fill:#DAC59D;}
	.st39{fill:#E0E0E9;}
	.st40{fill:#E5F2FA;}
	.st41{fill:#E5EEF5;}
	.st42{fill:#DCE7F2;}
	.st43{fill:#E2EDF7;}
</style>
<image style="display:none;overflow:visible;" width="300" height="300" xlink:href="B7BDC3CD.jpg"  transform="matrix(1.8467 0 0 1.8467 -32.655 -90.1835)">
</image>
<path class="st0" d="M153.3,60.8c0.3,1.1,9.8-3.7,17,1c6.5,4.3,6.2,13.2,8,13c2.3-0.2,6.6-15.3,0-21
	C170.4,46.9,152.9,59.2,153.3,60.8z"/>
<path class="st1" d="M262.3,34.8c-30-5.2-54-2.2-69,1c-23.5,5-64.7,13.7-77,45c-5.5,13.9-3.5,27.8-1,37
	c-2.1-2.3-19.3-22.2-13.5-43.5c3.3-12.1,13-20.7,19-26c4.9-4.4,10.2-7.9,18-12c7.3-3.8,24.9-12.3,54-18c12.7-2.5,30.1-4.9,51-5
	c1.1,0.4,18.7,7.1,19,18C262.9,32.4,262.7,33.5,262.3,34.8z"/>
<path class="st0" d="M270.3,41.8c-2.5,7.2-24.7,2.4-54.5,4.5c-22,1.5-56.1,3.9-77.5,26.5c-10.5,11.1-14.9,23.8-17,32
	c27,17.5,31.7,24,30.5,26.5c-1.5,3.3-13.9,2.1-23-3c-17.7-9.9-18.9-32.5-19-35c-0.1-3.3-0.3-11.4,4-20c1.4-2.8,5.2-9.4,20-19
	c7.6-4.9,18.9-11.2,34-16c12.4-4.8,31-10.2,54-11c17.3-0.6,31.9,1.5,43,4C268,34.4,271.5,38.6,270.3,41.8z"/>
<path class="st0" d="M363.3,51.8c1.7,0.8,24.9,12.6,27,36c1.5,17.4-9.7,30.1-14.5,35.5c-11.5,12.9-25.7,17.2-36.5,20.5
	c-12.8,3.9-24,4.6-31.5,4.5c39-18.3,48.7-34.1,49-46c0.3-11.1-7.4-25.2,0-41C358.9,57,361.5,53.8,363.3,51.8z"/>
<path class="st2" d="M329.3,46.8c2.3-2.1,13.2,4.5,35,18c5.6,3.5,9.8,6.1,11,11c0.8,3.1,0,5.5-4.5,16.5c-6.4,15.8-7.3,17.1-8,17
	c-2.3-0.5,4.9-17-3-28c-6.4-8.9-16.4-5.4-25-16C329.7,59,326.5,49.5,329.3,46.8z"/>
<path class="st1" d="M379.3,116.8c-1.2-1,8.5-9.5,9-23c0.3-8.7-3.4-15.4-6-20c-8.2-14.6-21.2-21.9-28-25
	c-31.3-14.6-57.7-19.7-76.5-21.5c-34.6-3.4-58.3-2.1-58.5-4.5c-0.1-1.2,5.5-3.2,30-7c35.4-1.1,63.2,4.5,81.5,9.5
	c28.8,7.9,39.7,16.2,46,22c4.8,4.4,28.3,27.3,22,49C394.9,110,380.7,117.9,379.3,116.8z"/>
<path class="st2" d="M226.3,27.8c-0.1,1.3,18,6.4,32,5c1.7-0.2,5.6-0.7,10,1c4.9,1.8,8.1,5.3,10,8c15,1.8,27.4,3.9,36.5,5.5
	c10.7,1.9,16.1,2.9,19,4c12.4,4.7,18.5,11.6,26,9c0.9-0.3,4.6-1.6,5-4c1.1-7.2-30.3-18.5-52-24C267.4,20.9,226.4,25.9,226.3,27.8z"
	/>
<path class="st3" d="M337.3,113.8c-4.6,8.8-13.4,22.2-29,32c-22.5,14.2-53.7,17.5-70.8,10.3c0.1,0.4,0.2,0.8,0.3,1.2
	c-64.6,4-112-17.6-117.5-44.5c-3-14.7,6.4-31.2,8-34c15.3-26.7,44.5-32.2,49-33c13.5,13.9,30.8,35.1,44.5,64.5
	c2.5,5.3,4.7,10.5,6.6,15.6c3.3-7.7,8.5-15.1,11.9-20.1c17.1-24.5,41.1-34.9,53-39c18.8-0.6,35.4,8.5,42,23
	C339.8,99.7,338.4,109.3,337.3,113.8z"/>
<path class="st0" d="M249.3,45.8c58.6-1.2,102.8,17.4,110,45c1.3,5.2,1.8,12.1-1,21c-4.2,5.7-10.5,13.3-19.5,20.5
	c-21.7,17.5-46.3,23-47.5,20.5c-1.2-2.4,19.1-12.2,38.5-37.5c5-6.5,7.1-10.3,7-15c-0.2-13.8-18.8-25.1-31.5-28.5c-3.8-1-6-1-7-1
	c-11,0.4-18.6,10.1-22.5,14.5c-6.7,7.5-18,16.8-38,24c-2-10.3-3.9-28.9,4-49C244.1,54.7,246.7,49.9,249.3,45.8z"/>
<path class="st0" d="M226.3,127.8c-2.4-0.8-0.8-6.8-5.5-14.5c-4.8-8-9.8-7-19-15c-5.3-4.6-19.3-16.7-18.5-30.5c0.3-4.6,2.2-10-1-14
	c-2.2-2.7-4.9-2.5-5.5-4.5c-1.3-4.6,11-11.8,13-13c6.3-3.6,15.2-8.7,27-7c7,1,12.1,4,15,6c15.7-3.4,28.7-3.8,37.5-3.5
	c40.4,1.3,62.8,18.5,63,23c0,0.2,0,1.3,0.5,2.5c1,2.6,3.3,4.1,5,5c2.6,0.6,18,4.2,25,18c9,17.8-2.4,39.4-6,39
	c-3.8-0.4,3.6-24.9-11-43c-8.8-10.9-21.1-13.9-42-19c-21.5-5.2-56.4-9.9-59-2c-0.9,2.6,1.5,7.4,16,17
	C238.4,118.9,229.7,129,226.3,127.8z"/>
<g>
	<path class="st4" d="M326.3,281.8c-0.1-4.9,14.6-5.9,29.5-19.5c8-7.2,12.7-15.1,15.5-20.5c7.2,3.4,22.9,9.4,41.5,5.5
		c12.5-2.6,34.1-11.2,36-25c1.1-8-5.4-11.1-3-19c2.9-9.9,14.9-11.6,15-19c0.1-4.1-3.6-7.6-7-10c1.5-3.2,3-6.3,4.5-9.5
		c3.2,3.5,6.3,7,9.5,10.5c3.5,5.6,8.6,15.1,11,28c2.3,12.3,1.2,22.6,0,29c-1.9-1-10.2-5.1-20-2c-5.6,1.8-9.2,5.1-11,7
		c-1.5,0.8-6.4,3.7-9,10c-2.2,5.4-1.4,10.2-1,12c1.4-0.5,3.6-1.1,5,0c2.6,2,0.6,8.3,0,10c-4.3,13.5-38.5,27.6-77,25
		C346.7,293,326.5,287.6,326.3,281.8z"/>
	<path class="st5" d="M425.3,198.8c-0.7-2.4,10.6-5.4,20-15c4-4,6.5-8.1,8-11c1.4,0.4,5.5,1.6,8.5,5.5c0.7,0.9,3.4,4.4,3,8
		c-0.9,9.2-20.7,14.4-34,14C427.5,200.2,425.6,199.8,425.3,198.8z"/>
	<path class="st6" d="M453.3,200.8c-7.1,2.5-45.9,16.7-54,34c-1.4,3.1-1.5,5.3-1,7c2.4,8.7,20.6,13.6,32,10
		C445.1,247.2,455.3,226.6,453.3,200.8z"/>
	<path class="st7" d="M372.3,244.8c-1.3-7.2,17.9-16.2,25-19c10.2-4.1,20.5-5.4,21-4c0.3,1-5,2-7.5,6.5c-4.2,7.7,5.3,16.1,2.5,21.5
		C408.7,258.6,374,254.2,372.3,244.8z"/>
	<path class="st8" d="M322.3,279.8c4.2,3.4,13.8-2.2,24-8c4.4-2.5,23-13.2,34.5-30.5c2.3-3.4,4.7-7.7,10-11c6.6-4.1,12.2-3.3,13-6
		c0.6-1.9-1.2-5.3-12-12c-4.5,1.9-11.4,4.2-20,5c-7.3,0.7-11.1-0.1-14,0C336.1,218.1,312.6,272,322.3,279.8z"/>
	<path class="st9" d="M436.3,262.8c-0.4-3.7-1.2-14.3,5.5-23.5c9.7-13.3,29.8-16.4,33.5-11.5c1.3,1.8-0.3,7-3.5,17.5
		c-1.5,4.9-2.3,7.4-3,9c-5.3,11.8-19.5,22.7-27,19C440.4,272.6,437.5,270.5,436.3,262.8z"/>
	<path class="st10" d="M330.3,330.8c1.3,3.5,27.8-3.7,81-18c19.5-5.2,33.6-9.5,47.5-21.5c11.6-10,18.2-21.2,22-29
		c3-5.9,11.3-24.3,7-48c-3.8-20.8-15.2-34-20-39c1.7,3.5,17.8,38.4-1,72c-12,21.4-31.3,30.3-38,33
		C346.8,316.1,329.2,327.5,330.3,330.8z"/>
	<path class="st11" d="M274.3,297.8c8.3,14.7,16.7,29.3,25,44c24-5.5,54.5-14.8,87.5-31.5c25.9-13.1,47-27.5,63.5-40.5
		c-3.6-1.5-9.4-3.4-16.5-3.5c-24.1-0.5-35.4,19.3-54,25c-12.3,3.8-31.5,1.8-62-24C303.3,277.5,288.8,287.6,274.3,297.8z"/>
	<path class="st12" d="M142.3,237.8c-4.1,3.6-46.1,41.1-36,70c6.6,18.7,33.5,24,87,34c43.1,8,101.7,18.9,109.5,1.5
		c3.1-7-1-20.6-35-50C226,274.8,184.2,256.3,142.3,237.8z"/>
	<path class="st13" d="M101.8,134.3c-41.7,18.4-62.8,63.1-51.5,101.5c8.8,30.1,36.4,52.9,70,58c-0.2,4.1,0.2,10,3,16
		c7.2,15.5,27.6,26,82.5,29.5c84.3,5.4,149.5-12.2,156-14c56.7-15.8,95.4-37.2,97-34c0.8,1.6-8.2,9.2-56,37c-20.7,9.4-49.5,20-85,26
		c-36.5,6.1-68,5.3-91,3c-37.5-2.1-67.8-8.9-89-15c-32.7-9.4-57-16.4-81-37c-23.6-20.2-35.8-43.9-42-59c-6.1-22.1-1.4-37.6,1-44
		c3.5-9.3,8.8-16,15-24c8.5-10.9,16.9-18.8,23-24c4.4-3.7,13.3-11.4,26-19c7.8-4.7,20-12.1,23-9
		C104.4,127.9,103.1,131.6,101.8,134.3z"/>
	<path class="st14" d="M68.3,247.8c-5.8,7.4,24.5,40.1,30,46c7.3,0,14.7,0,22,0c1.8-8.2,3.7-16.3,5.5-24.5
		C120.1,266,74.7,239.7,68.3,247.8z"/>
	<path class="st15" d="M101.3,133.8c4.9,16.1,11.3,33.8,19.5,52.5c7.9,18.1,16.3,34.3,24.5,48.5c-5.8,6.3-17,20.4-21.5,41.5
		c-3.1,14.5-1.9,26.8-0.5,34.5c-3.2-2.8-6.3-5.7-9.5-8.5c3.2-4.2,9-13,6-20c-0.7-1.5-1.5-2.5-2-3c-7-7.6-37.2-33.1-41-29
		c-2.1,2.3,4.4,13.6,31,44c-2.1,1.7-6.1,4.3-11,4c-5.7-0.3-9.7-4.5-12-7c-13.9-15.1-20.9-22.6-25-30c-8.1-14.6-17.4-31.4-18-49
		C40.9,182.3,65.6,152.2,101.3,133.8z"/>
	<path class="st16" d="M99.3,127.8c-18.9,8.5-32.8,18.4-42,26c-13.6,11.2-22.2,21.6-27,28c-5.6,7.4-9.8,13.1-13,22
		c-1.8,5.1-5.7,16.3-3,30c0.9,4.3,2,7.2,4,12c6,14.7,13.6,24.9,16,28c8.3,10.8,17.7,19,29,27c35.9,25.2,74.6,35.5,92,40
		c10.5,2.7,33.9,8.3,64.5,10.5c29.2,2.1,51.6,0.3,67-1c14.9-1.3,32.3-2.8,55-8c30.5-7,53-16.5,63-21c23.1-10.4,42.3-22.2,57.7-33.4
		c-1.1,1.4-2.8,3.5-5.2,5.9c-3.8,3.8-7.2,6.4-9.6,8.4c-9,7.5-20.7,16-34.9,24.1c-36.4,20.8-69,27-91,31c-33.8,6.1-60,5.6-88,5
		c-18.9-0.4-36.9-0.9-61-5c-15.5-2.7-39.8-7-69-20c-24.1-10.7-39.8-22.1-45-26c-12.5-9.4-23.2-17.5-33-32c-4.6-6.8-12.9-19.3-16-38
		c-2.8-16.6-0.1-30.3,2-38c6.3-12.5,18.2-31.9,39-50c17.9-15.6,35.8-24.2,48-29C99,125.5,99.2,126.6,99.3,127.8z"/>
</g>
<path class="st17" d="M392.3,212.8c11-5.3,22-10.7,33-16c2.7,1.2,7,2.7,11,1c1.2-0.5,2-1.2,3.5-2.5c2.6-2.2,6.3-5.4,11.5-9.5
	c3.7-3.2,8.9-3.1,11.5-0.5c3.1,3,2.8,9.5-2,13c-22.4,8.7-34.2,16.3-41,22c-1.5,1.2-8.4,7.2-18,8c-2.6,0.2-6.5,0.5-9-2
	C390.1,223.5,389.9,218.2,392.3,212.8z"/>
<g>
	<path class="st18" d="M395.3,146.8c-1.1,1-19.7,19-14,34c0.6,1.6,1.5,3.3,3,5c4-0.9,9.7-2.5,16-6c5-2.8,8.2-4.6,9.5-7.5
		C412.6,166.1,406.5,155.8,395.3,146.8z"/>
	<path class="st19" d="M398.3,124.8c7,2.3,15.8,6,25,12c5.6,3.7,10.2,7.5,14,11c-3.3,5.3-8.5,12.2-16.5,18.5c-4,3.2-8,5.7-11.5,7.5
		c-2.4-2.8-6.3-6.9-11.5-11.5c-7.6-6.7-10.4-7.8-12-11C383.8,147.3,385,139.8,398.3,124.8z"/>
</g>
<path class="st20" d="M444.3,113.8c-1.2-12-17.5-22.1-40-27c-2-0.3-4-0.7-6-1c-3.2,10.8-6.3,21.7-9.5,32.5c6.8-2.2,17.6-4.8,31-4
	c10,0.6,18.2,2.9,24,5C444.4,117.3,444.5,115.5,444.3,113.8z"/>
<path class="st21" d="M487.3,242.8c0.8,0.4-7.2,30.2-31,56c-13.7,14.9-27.5,22.8-42,31c-9.9,5.6-36,19.4-74,28
	c-41.6,9.4-78.7,8.2-106.5,4.5c31.4,0,58.1-3.3,79-7c30.9-5.5,54.4-13.1,65-16.8c6.3-2.2,12-4.3,17-6.2c11.3-4.4,45.4-19.5,71-52
	C481.9,260,486.7,242.5,487.3,242.8z"/>
<path class="st22" d="M399.8,86.3c27-5.1,53.3,8.8,63,32c7.8,18.8,3.7,41.2-10.5,57.5c9.1-22.2,4.6-46.1-10.5-59.5
	c-12.1-10.7-27-11.1-32-11c0.4-0.6,3.1-5.5,1-11C409.1,89.9,404.8,86.7,399.8,86.3z"/>
<path class="st23" d="M435.8,153.3c-1.2,3.2-2.3,6.3-3.5,9.5c-1.5,3.3-3.8,7.5-7,12c-1.9,2.6-6.5,8.7-13.5,14.5
	c-11.5,9.4-23.8,13.3-31,15c-1-5.7-2-11.3-3-17c10.1-3.3,22.7-8.5,36-17C422.7,164.7,430,158.7,435.8,153.3z"/>
<path class="st24" d="M368.8,209.3c13.1-11.8,15.2-33.4,17-33c2,0.4,2.9,28.5-11,36c-3.4,1.8-9.3,3.3-10,2
	C364.3,213.3,367.5,210.5,368.8,209.3z"/>
<path class="st25" d="M426.3,161.8c4.8-6.4,21.3-28.1,14-40c-2-3.3-5.4-5-8-6c-1.5-1.1-3.3-2.5-3-3c0.4-0.9,6.4,0.7,11,3
	c0,0,7.9,4,13,12c5.1,8,1.1,41.3-24,63c-24.4,21.1-57.9,21.8-59.5,17.5C368.3,203.9,400.8,195.5,426.3,161.8z"/>
<path class="st26" d="M398.3,115.8c23.5-2,41.8,0.6,44,8c0.5,1.5,0.3,3.5,0,6c-0.8,7.8-3.8,13.6-6,17"/>
<path class="st27" d="M371.3,216.8c1.7,1.4-15,23-15,23c-6.7,8.7-12.3,15.6-16,20c-1.3-1.7-2.7-3.3-4-5
	c8.8-12.8,17.7-25.7,26.5-38.5c1.2,0.8,2.7,1.5,4.5,1.5C369.8,217.8,370.9,216.5,371.3,216.8z"/>
<ellipse class="st28" cx="249.3" cy="85.3" rx="149.5" ry="72"/>
<g>
	<path class="st29" d="M99.3,128.8c-6.2-21.7-2.9-41,0-52c-0.2,6.6,0.4,17.2,6,28c9,17.5,25.5,24.7,47,34
		c27.3,11.8,50.8,14.9,55.5,15.5c29.3,3.5,35.8-2.2,48,4c11.2,5.7,23.9,19.7,29,57c-20.4,3.5-76.7,10.3-129-22
		C139.1,183,109.6,164.8,99.3,128.8z"/>
	<path class="st29" d="M395.8,103.3c-1.5-0.8-6.9,9.2-20,20c-12.2,10.1-23.4,14.6-38,20c-14.3,5.3-42.6,15.7-79,14
		c-16.3-0.7-20.8-3.3-22.5-0.5c-6.9,11.1,48.5,76.5,92.5,64.5c10-2.7,17.2-8.9,22-14C390.6,124.9,397.9,104.4,395.8,103.3z"/>
	<path class="st30" d="M156.3,253.8c2.9,5.5,7.9,13.4,16,21c2.2,2.1,9.8,8.9,23,15c22.1,10.2,42.7,10.2,53,10
		c12.5-0.2,36.9-0.8,62.5-15.5c21-12,32.3-27.4,34.5-30.5c5.1-7.1,8.4-13.6,10.5-18.5c-31.3,14.3-62.7,28.7-94,43
		C226.7,270.1,191.5,262,156.3,253.8z"/>
	<path class="st31" d="M394.3,143.8c5.4-14.6,4-28,4-28c-0.5-4.3-1.3-7.7-2-10c-1,1.5-2.3,3.6-4,6c-6.4,9-14.2,19.6-27,25
		c-3.9,1.6-3.7,0.8-6,2c-17.6,8.7-21.9,48.8-12,54C357.8,198.3,386.3,165.6,394.3,143.8z"/>
	<path class="st32" d="M99.3,126.8c3.3,25.9,13.3,75,48.5,117.5c10.9,13.2,26.9,32,54.5,42.5c19.2,7.3,35.8,7.5,44.5,7.5
		c11.9,0,40.6-0.3,68-18c14-9.1,23.3-19.8,33-31c9-10.4,15.6-20,20-27c1.7-2.7,7.3-12.3,13-26c4.7-11.3,10.3-27.7,13.5-48.5
		c-2.8,3.8-5.7,7.7-8.5,11.5c-11.4,13.3-28.7,29.1-53,40c-65.7,29.4-129.5,10.9-148,5c-24.4-7.7-43-18.2-55-26
		c-5.6-5.2-12.6-12.8-19-23C105.1,142.2,101.6,133.6,99.3,126.8z"/>
</g>
<path class="st33" d="M372.3,209.8c15.1-1.9,42.5-7.9,63-30c3.1-3.3,5.7-6.6,8-10c8.2-12.1,9.7-21.8,9.5-28.5c-0.3-7.9-3-15-1-16
	c1.8-0.9,6,3.9,8,7c2.8,4.2,3.7,8.5,4,11c-1.5,18.7-9.1,30-13,35c-6.3,8-13.1,12.1-26,20c-6.6,4-15.7,9.5-29,14
	c-11.1,3.7-20.9,5.3-28,6C369.3,215.5,370.8,212.6,372.3,209.8z"/>
<g>
	<path class="st34" d="M210.3,49.8c-3.5-4.3-6-5.7-8-7c-8.7-5.5-19.7-1.4-20-3c-0.2-1,3.7-2.5,5-3c0.9-0.4,7.1-2.7,12-2
		c11.3,1.7,18.2,20.2,17,21C216,56,214.7,55,210.3,49.8z"/>
	<path class="st35" d="M154.3,88.8c0.1,1,9.2-0.9,23,2c12,2.5,18.6,6.8,19,6c0.5-1-7.7-8.6-19-11C165.3,83.3,154.2,87.7,154.3,88.8z
		"/>
	<path class="st35" d="M139.3,95.8c-1.7,0.5-1.7,8.9,1,16c7.3,19.3,32.4,24.7,36.5,25.5c-0.7-0.7-1.7-1.8-3-3
		c-7.2-6.9-13.4-10.3-16-12C144.2,113.4,141.9,95.1,139.3,95.8z"/>
	<path class="st36" d="M168.3,95.8c0.9,2-5.6,4.5-7,10c-1.2,5,1.9,12.5,17,24c-4.5-1.4-12.8-4.6-19.5-12.5c-2.8-3.3-10.2-12.1-7-18
		C155,93.4,167.2,93.2,168.3,95.8z"/>
	<path class="st37" d="M210.3,103.8c1.2-0.9,6.4,3.5,10,8c1.4,1.8,4.8,6.1,4,7c-1.2,1.3-12-5.4-14-13
		C209.9,104.2,210.2,103.9,210.3,103.8z"/>
	<path class="st37" d="M214.3,128.8c-4.4-4.6-7.2-3.9-12-9c-5-5.4-5.9-10.3-8-10c-1.6,0.2-2.7,3.2-2.5,5.5c0.3,3.3,3.4,5.6,3.5,5.5
		c0.2-0.2-3.3-5.3-7.5-9.5c-2.3-2.3-4.5-4-6-5c-0.2,1.1-1.7,11.5,6,19c5.5,5.4,12.2,5.9,14,6c-4.5-0.7-14-2.9-20-11
		c-3.5-4.7-6.5-12.3-4-15c0.9-1,2.1-0.7,8-1c6.6-0.3,9.9-0.4,10-1c0.1-0.7-4.4-2.3-9-3c-9-1.4-19.6,0.1-20,3c-0.1,0.8,0.5,2.1,4,4
		c0.1,2.2,0.5,5.5,2,9c2.1,4.7,5.7,8.6,13,13c12.8,7.7,26.7,10.7,35,12C219.2,134.9,216.5,131.1,214.3,128.8z"/>
	<path class="st38" d="M298.3,70.8c4.4,0.6,12,2.2,19.5,7.5c4.6,3.2,14.9,10.5,15.5,22.5c0.4,8.2-4,14.4-6,17
		c8.3-8.8,12-19.8,8.5-28.5c-2.5-6.2-7.8-9.5-12-12C313.7,71.1,303.4,70.7,298.3,70.8z"/>
	<path class="st39" d="M281.3,89.8c7.4,0.3,11.6,2.6,14,5c2.5,2.4,3.8,5.4,5,5c1.1-0.3,1.6-3.3,0.5-5.5c-1.2-2.5-4.1-3.2-7-4
		C291.2,89.6,286.9,88.9,281.3,89.8z"/>
	<path class="st40" d="M267.3,96.8c1.9-0.3,8.3-1,14,3c1.8,1.3,3.1,2.7,4,4c1-2,2.7-4.7,5.5-5.5c2.8-0.8,5.4,0.7,5.5,0.5
		c0.1-0.3-5.4-3.6-12.5-4.5C276.5,93.4,270.5,95.4,267.3,96.8z"/>
	<path class="st41" d="M263.3,102.8c-0.1,1,4,1.3,6,5c0.9,1.7,1.1,3.5,1,5c1.4-0.1,5.2-0.6,8.5-3.5c1.3-1.2,4.1-3.6,3.5-5.5
		C281.1,99.6,263.6,100.9,263.3,102.8z"/>
	<path class="st42" d="M234.3,132.8c0.8,2.3,28.9-1.5,35-15c0.1-0.2,1.9-4.3,1-5c-1-0.7-3.7,3.1-8.5,6.5c-8,5.6-12.7,3.5-23,10
		C235.7,131.3,234.2,132.3,234.3,132.8z"/>
	<path class="st42" d="M227.3,145.8c2,1.1,5.5-3.2,10.5-6.5c6.8-4.5,9.4-2.5,25-6c17.2-3.9,24.8-8.7,29.5-14.5c0.7-0.9,2.6-3.2,2-4
		c-1.4-1.8-13.9,6.3-25.5,11.5c-9.3,4.2-23.1,8.8-42,10C226.1,140.1,225.5,144.8,227.3,145.8z"/>
	<path class="st43" d="M227.8,93.3c-1-2.3-3.2-7-8-11c-4.7-4-9.5-5.4-12-6c-2.2-1.3-6.6-4.3-9-10c-1-2.4-1.9-4.4-1-6
		c2-3.5,11.4-2.6,18,1c3.4,1.9,5.6,4.2,7,6c0.7-1,5.9-8.6,15-9c6.5-0.3,15.1,3.1,16,9c0.8,4.9-4.1,9.8-8,12c-4,2.2-6.3,1-10,3
		C231.2,84.8,229,89.7,227.8,93.3z"/>
	<path class="st42" d="M224.8,149.3c-2.6,0.2-3.2-8.4-9.5-18.5c-6.7-10.7-15.1-15.3-14-17c0.8-1.3,6.5,0.9,9,2c8.8,4,8.8,10.3,14,12
		c9.2,3,22.3-11.3,21.5-12.5c-0.7-1.1-12.6,6.9-14,5c-1.1-1.4,3.2-7.5,9-11c9.2-5.5,22-4.4,23-1c0.7,2.3-6.2,7.2-20,17
		c-6.9,4.9-9.3,6.2-12,10C226.7,142.6,227.1,149.2,224.8,149.3z"/>
</g>
</svg>
